<svg width="122" height="116" viewBox="0 0 122 116" fill="none" xmlns="http://www.w3.org/2000/svg">
<path d="M21.1925 114.269L78.4045 60.4226L105.328 87.3458M21.1925 114.269H88.5007C99.6527 114.269 108.693 105.229 108.693 94.0767V60.4226M21.1925 114.269C10.0405 114.269 1 105.229 1 94.0767V26.7685C1 15.6165 10.0405 6.57599 21.1925 6.57599H64.9428M101.962 39.0753L101.962 20.0376M101.962 20.0376L101.962 1M101.962 20.0376L82.9247 20.0376M101.962 20.0376L121 20.0376M41.3849 36.8647C41.3849 42.4407 36.8647 46.9609 31.2887 46.9609C25.7127 46.9609 21.1925 42.4407 21.1925 36.8647C21.1925 31.2887 25.7127 26.7685 31.2887 26.7685C36.8647 26.7685 41.3849 31.2887 41.3849 36.8647Z" stroke="#3D73D1" stroke-width="2" stroke-linecap="round" stroke-linejoin="round"/>
</svg>
