<svg width="32" height="33" viewBox="0 0 32 33" fill="none" xmlns="http://www.w3.org/2000/svg">
<path d="M1 18.7185C1.52452 22.3225 3.32906 25.6171 6.08349 27.9997C8.83792 30.3822 12.3581 31.6935 16 31.6935C19.6419 31.6935 23.1621 30.3822 25.9165 27.9997C28.6709 25.6171 30.4755 22.3225 31 18.7185M16.0022 1.40002C14.2797 1.40002 12.6278 2.08426 11.4099 3.3022C10.192 4.52015 9.50772 6.17203 9.50772 7.89447V16.5537C9.50772 18.2762 10.192 19.928 11.4099 21.146C12.6278 22.3639 14.2797 23.0482 16.0022 23.0482C17.7246 23.0482 19.3765 22.3639 20.5944 21.146C21.8124 19.928 22.4966 18.2762 22.4966 16.5537V7.89447C22.4966 6.17203 21.8124 4.52015 20.5944 3.3022C19.3765 2.08426 17.7246 1.40002 16.0022 1.40002Z" stroke="white" stroke-width="2" stroke-linecap="round" stroke-linejoin="round"/>
</svg>
