<svg width="20" height="21" viewBox="0 0 20 21" fill="none" xmlns="http://www.w3.org/2000/svg">
<path d="M10 20.269C4.477 20.269 0 15.792 0 10.269C0 4.74604 4.477 0.269043 10 0.269043C15.523 0.269043 20 4.74604 20 10.269C20 15.792 15.523 20.269 10 20.269ZM10 18.269C12.1217 18.269 14.1566 17.4262 15.6569 15.9259C17.1571 14.4256 18 12.3908 18 10.269C18 8.14731 17.1571 6.11248 15.6569 4.61219C14.1566 3.1119 12.1217 2.26904 10 2.26904C7.87827 2.26904 5.84344 3.1119 4.34315 4.61219C2.84285 6.11248 2 8.14731 2 10.269C2 12.3908 2.84285 14.4256 4.34315 15.9259C5.84344 17.4262 7.87827 18.269 10 18.269V18.269ZM9 5.26904H11V7.26904H9V5.26904ZM9 9.26904H11V15.269H9V9.26904Z" fill="#6B7785"/>
</svg>
