<svg width="42" height="42" viewBox="0 0 42 42" fill="none" xmlns="http://www.w3.org/2000/svg">
<path d="M6 38.4997V34.7497C6 31.9883 8.23858 29.7498 11 29.7498H31C33.7614 29.7498 36 31.9883 36 34.7498V39.7497M6 41C3.23858 41 1 38.6436 1 35.7368V6.26315C1 3.35639 3.23858 1 6 1H36C38.7614 1 41 3.35639 41 6.26316V35.7368C41 38.6436 38.7614 41 36 41H6ZM27.25 14.7498C27.25 18.2015 24.4518 20.9998 21 20.9998C17.5482 20.9998 14.75 18.2015 14.75 14.7498C14.75 11.298 17.5482 8.49975 21 8.49975C24.4518 8.49975 27.25 11.298 27.25 14.7498Z" stroke="#3D73D1" stroke-width="2" stroke-linecap="round" stroke-linejoin="round"/>
</svg>
